<?xml version="1.0" standalone="no"?>
<!DOCTYPE svg PUBLIC "-//W3C//DTD SVG 20010904//EN"
 "http://www.w3.org/TR/2001/REC-SVG-20010904/DTD/svg10.dtd">
<svg version="1.0" xmlns="http://www.w3.org/2000/svg"
 width="256.000000pt" height="256.000000pt" viewBox="0 0 256.000000 256.000000"
 preserveAspectRatio="xMidYMid meet">

<g transform="translate(0.000000,256.000000) scale(0.100000,-0.100000)"
fill="#000000" stroke="none">
<path d="M707 2233 c-60 -7 -68 -29 -51 -138 7 -49 14 -97 14 -105 0 -29 34
34 35 65 0 53 20 37 23 -18 2 -45 8 -59 32 -82 29 -28 30 -28 30 -7 0 17 6 22
24 22 41 0 86 76 56 95 -7 4 -7 13 0 26 9 16 7 19 -9 19 -14 0 -19 -5 -15 -15
4 -9 -3 -18 -17 -25 -13 -5 -32 -16 -42 -22 -23 -17 -38 4 -35 47 3 28 6 31
62 40 68 12 88 38 58 75 -18 22 -89 32 -165 23z m150 -199 c-3 -3 -12 -4 -19
-1 -8 3 -5 6 6 6 11 1 17 -2 13 -5z"/>
<path d="M800 2105 c0 -9 5 -15 11 -13 6 2 11 8 11 13 0 5 -5 11 -11 13 -6 2
-11 -4 -11 -13z"/>
<path d="M2029 2091 c17 -16 31 -36 31 -46 0 -9 5 -13 10 -10 6 3 10 13 10 21
0 20 -45 64 -66 64 -12 0 -8 -8 15 -29z"/>
<path d="M1925 1990 c3 -5 8 -10 11 -10 2 0 4 5 4 10 0 6 -5 10 -11 10 -5 0
-7 -4 -4 -10z"/>
<path d="M1885 1981 c-3 -5 -2 -12 3 -15 5 -3 9 1 9 9 0 17 -3 19 -12 6z"/>
<path d="M820 1844 c10 -35 14 -64 9 -64 -12 0 -151 90 -161 104 -10 15 -87
-41 -99 -71 -6 -17 -6 -58 1 -122 6 -53 15 -147 21 -210 11 -128 18 -148 57
-158 27 -6 317 21 389 38 38 8 63 31 63 57 0 10 -6 7 -17 -7 -12 -15 -34 -23
-69 -27 l-51 -6 -7 32 c-3 18 -6 49 -6 70 0 43 -12 50 -95 50 -27 0 -56 4 -64
9 -14 9 -45 197 -35 213 3 4 31 8 62 8 55 0 58 1 69 31 11 29 10 35 -15 64
-15 18 -37 37 -49 43 l-21 11 18 -65z"/>
<path d="M1950 1845 c0 -13 4 -14 20 -5 11 6 20 13 20 15 0 3 -9 5 -20 5 -11
0 -20 -7 -20 -15z"/>
<path d="M1896 1663 c19 -36 24 -61 22 -98 l-3 -50 -93 -31 c-52 -17 -98 -37
-103 -45 -5 -8 -9 -27 -9 -44 l0 -30 18 35 c16 32 26 38 118 67 l100 33 19 72
c10 40 20 80 23 88 3 13 3 13 -7 0 -5 -8 -13 -33 -17 -54 l-6 -40 -19 50 c-11
28 -30 61 -43 73 l-24 23 24 -49z"/>
<path d="M1885 1326 c-72 -9 -90 -14 -93 -28 -4 -23 -2 -23 120 8 147 38 143
41 -27 20z"/>
<path d="M801 1293 c11 -3 15 -12 13 -26 l-5 -22 10 22 c11 24 12 24 114 3 32
-7 37 -6 37 11 0 17 -8 19 -92 18 -51 -1 -86 -3 -77 -6z"/>
<path d="M755 1092 l-41 -117 18 -245 c9 -135 18 -256 18 -270 1 -14 6 -4 11
25 5 28 18 91 29 140 19 83 20 110 13 337 l-8 247 -40 -117z"/>
<path d="M1922 1170 c0 -14 4 -38 8 -55 7 -27 8 -27 8 -5 0 14 -4 39 -8 55 -7
27 -8 27 -8 5z"/>
<path d="M1940 1058 c0 -14 -7 -43 -16 -64 -15 -34 -15 -50 -4 -135 7 -53 10
-118 7 -145 -5 -43 20 -230 30 -220 3 3 44 287 45 311 1 14 -54 269 -58 274
-2 2 -4 -7 -4 -21z"/>
<path d="M2222 365 c-46 -24 -93 -52 -105 -63 -12 -11 -34 -24 -49 -27 -16 -4
-28 -13 -28 -21 0 -10 -15 -14 -58 -14 l-58 0 4 33 4 34 -89 -4 c-104 -5 -222
-30 -230 -49 -8 -21 -513 -21 -513 0 0 9 -27 20 -77 33 l-78 19 3 32 4 32 -96
0 -96 0 0 -53 c0 -29 5 -58 12 -65 9 -9 -10 -12 -85 -12 -78 0 -97 3 -97 14 0
10 -24 20 -75 31 -81 18 -79 16 -58 73 4 9 -18 12 -90 12 l-95 0 -12 -36 c-7
-19 -10 -49 -8 -65 3 -15 0 -30 -6 -33 -6 -2 441 -4 994 -3 553 0 976 3 940 6
l-65 6 98 48 c101 50 116 64 101 97 -8 18 -14 16 -92 -25z"/>
</g>
</svg>
